<?xml version="1.0" encoding="UTF-8" standalone="no"?>
<!-- Created with Inkscape (http://www.inkscape.org/) -->

<svg
   width="297mm"
   height="297mm"
   viewBox="0 0 297 297"
   version="1.1"
   id="svg5"
   xml:space="preserve"
   inkscape:version="1.2.2 (732a01da63, 2022-12-09)"
   sodipodi:docname="drawing.svg"
   inkscape:export-filename="drawing.png"
   inkscape:export-xdpi="600"
   inkscape:export-ydpi="600"
   xmlns:inkscape="http://www.inkscape.org/namespaces/inkscape"
   xmlns:sodipodi="http://sodipodi.sourceforge.net/DTD/sodipodi-0.dtd"
   xmlns="http://www.w3.org/2000/svg"
   xmlns:svg="http://www.w3.org/2000/svg"><sodipodi:namedview
     id="namedview7"
     pagecolor="#ffffff"
     bordercolor="#666666"
     borderopacity="1.0"
     inkscape:showpageshadow="2"
     inkscape:pageopacity="0.0"
     inkscape:pagecheckerboard="0"
     inkscape:deskcolor="#d1d1d1"
     inkscape:document-units="mm"
     showgrid="false"
     inkscape:window-width="2560"
     inkscape:window-height="1369"
     inkscape:window-x="-8"
     inkscape:window-y="-8"
     inkscape:window-maximized="1"
     inkscape:current-layer="layer1"
     showguides="true" /><defs
     id="defs2"><linearGradient
       id="linearGradient17250"><stop
         offset="0"
         style="stop-color:#dc0000"
         id="stop17251" /><stop
         offset="1"
         style="stop-color:#ffb200"
         id="stop17252" /></linearGradient><linearGradient
       id="linearGradient2867"><stop
         id="stop2869"
         style="stop-color:#fcbd17"
         offset="0" /><stop
         id="stop2871"
         style="stop-color:#fcee10"
         offset="1" /></linearGradient><linearGradient
       id="linearGradient2849"><stop
         id="stop2851"
         style="stop-color:#d3480f"
         offset="0" /><stop
         id="stop2853"
         style="stop-color:#deac06"
         offset="1" /></linearGradient><linearGradient
       id="linearGradient2067"><stop
         id="stop2069"
         style="stop-color:#fca829"
         offset="0" /><stop
         id="stop2071"
         style="stop-color:#fcdb29"
         offset="1" /></linearGradient><linearGradient
       id="linearGradient14625"><stop
         id="stop14626"
         style="stop-color:#ffffff"
         offset="0" /><stop
         id="stop14627"
         style="stop-color:#ffffff;stop-opacity:0"
         offset="1" /></linearGradient><linearGradient
       id="linearGradient26051"><stop
         id="stop26052"
         style="stop-color:#ffffff;stop-opacity:.44928"
         offset="0" /><stop
         id="stop26053"
         style="stop-color:#ffffff;stop-opacity:0"
         offset="1" /></linearGradient><linearGradient
       id="linearGradient19763"><stop
         id="stop19764"
         style="stop-color:#929292"
         offset="0" /><stop
         id="stop19765"
         style="stop-color:#ffffff;stop-opacity:0"
         offset="1" /></linearGradient><clipPath
       clipPathUnits="userSpaceOnUse"
       id="clipPath17578"><path
         d="M 0,660 H 660 V 0 H 0 Z"
         id="path17576" /></clipPath><clipPath
       clipPathUnits="userSpaceOnUse"
       id="clipPath17588"><path
         d="M -102.917,69.2871 H 102.917 V -69.2871 h -205.834 z"
         id="path17586" /></clipPath><clipPath
       clipPathUnits="userSpaceOnUse"
       id="clipPath18216"><path
         d="M -102.917,69.2871 H 102.917 V -69.2871 h -205.834 z"
         id="path18214" /></clipPath><clipPath
       clipPathUnits="userSpaceOnUse"
       id="clipPath18844"><path
         d="M -102.917,69.2871 H 102.917 V -69.2871 h -205.834 z"
         id="path18842" /></clipPath><clipPath
       clipPathUnits="userSpaceOnUse"
       id="clipPath19472"><path
         d="M -102.917,69.2871 H 102.917 V -69.2871 h -205.834 z"
         id="path19470" /></clipPath><clipPath
       clipPathUnits="userSpaceOnUse"
       id="clipPath20100"><path
         d="M -102.917,69.2871 H 102.917 V -69.2871 h -205.834 z"
         id="path20098" /></clipPath><clipPath
       clipPathUnits="userSpaceOnUse"
       id="clipPath20728"><path
         d="M -102.917,69.2871 H 102.917 V -69.2871 h -205.834 z"
         id="path20726" /></clipPath><clipPath
       clipPathUnits="userSpaceOnUse"
       id="clipPath21356"><path
         d="M -102.917,69.2871 H 102.917 V -69.2871 h -205.834 z"
         id="path21354" /></clipPath><clipPath
       clipPathUnits="userSpaceOnUse"
       id="clipPath21984"><path
         d="M -102.917,69.2871 H 102.917 V -69.2871 h -205.834 z"
         id="path21982" /></clipPath><clipPath
       clipPathUnits="userSpaceOnUse"
       id="clipPath22612"><path
         d="M -102.917,69.2871 H 102.917 V -69.2871 h -205.834 z"
         id="path22610" /></clipPath><clipPath
       clipPathUnits="userSpaceOnUse"
       id="clipPath23240"><path
         d="M -102.917,69.2871 H 102.917 V -69.2871 h -205.834 z"
         id="path23238" /></clipPath><clipPath
       clipPathUnits="userSpaceOnUse"
       id="clipPath23868"><path
         d="M -102.917,69.2871 H 102.917 V -69.2871 h -205.834 z"
         id="path23866" /></clipPath><clipPath
       clipPathUnits="userSpaceOnUse"
       id="clipPath24496"><path
         d="M -102.917,69.2871 H 102.917 V -69.2871 h -205.834 z"
         id="path24494" /></clipPath><clipPath
       clipPathUnits="userSpaceOnUse"
       id="clipPath25124"><path
         d="M -102.917,69.2871 H 102.917 V -69.2871 h -205.834 z"
         id="path25122" /></clipPath></defs><g
     inkscape:label="Graphic"
     inkscape:groupmode="layer"
     id="layer1"
     transform="translate(259.05988,3.260479)"
     style="fill:#ff6600"><g
       id="g28761"
       inkscape:label="logo"
       transform="matrix(2.6823844,0,0,2.6823844,133.09814,-135.5214)"><circle
         style="fill:#000000;fill-opacity:0.039548;fill-rule:evenodd;stroke:#ff6600;stroke-width:4;stroke-dasharray:none;stroke-opacity:1"
         id="path26226"
         cx="-91.356255"
         cy="104.30453"
         r="51.789989"
         inkscape:label="circle" /><g
         id="g14710"
         inkscape:label="spartan"
         style="display:inline;fill:#ff6600;fill-rule:evenodd"
         transform="matrix(0.01281844,0,0,0.01281844,-149.48658,50.12449)"><path
           d="m 3810.15,5126.95 c 71.34,-13.78 141.09,-27.73 211.14,-40.03 7.06,-1.24 17.53,5.85 23.62,11.9 101.26,100.62 199.06,204.95 303.9,301.65 87.91,81.1 183.82,153.54 276.37,229.59 131.92,108.4 247.22,232.56 346.44,371.17 173.4,242.26 298.75,507.36 368.36,797.5 6.12,25.51 -1.66,56.9 -10.53,82.99 -30.12,88.64 -94.02,152.58 -164.66,209.75 -98.96,80.09 -209.83,139.92 -327.3,188.41 -24.42,10.08 -33.29,5.25 -44.22,-18.67 -120.95,-264.59 -243.44,-528.48 -365.36,-792.63 -165.29,-358.1 -330.43,-716.27 -495.67,-1074.39 -38.48,-83.39 -77.09,-166.71 -115.57,-250.1 -2.34,-5.05 -3.99,-10.43 -6.52,-17.14 z"
           id="path6112"
           style="fill:#ff6600;fill-rule:evenodd" /><path
           d="m 4081.5,6038.59 c -3.87,-8.33 -15.91,-17.13 -25,-18.15 -178.55,-20.06 -356.97,-42.05 -535.97,-57.13 -125.26,-10.55 -251.13,-2.99 -375.74,14.67 -88.22,12.5 -174.58,33.46 -253.69,76.84 -46.46,25.48 -81.08,59.67 -102.13,111.26 -61.12,149.83 -126.47,297.94 -190.23,446.69 -33.1,77.22 -66.34,154.39 -101.61,236.46 8.3,-2.48 11.55,-3.36 14.74,-4.43 173.5,-58.22 353.3,-74.91 534.53,-75.08 108.08,-0.1 216.37,7.59 324.19,16.39 105.68,8.63 211.32,20.18 316.19,35.74 136.47,20.24 272.17,45.71 411.2,69.44 65.36,-117.75 132.4,-238.18 198.72,-359.01 3.42,-6.23 3.35,-17.11 0.33,-23.75 -71.26,-156.91 -142.94,-313.64 -215.53,-469.94 z m -1021.43,123.77 c -14.13,4.33 -29,15.05 -37.68,27.04 -95.97,132.57 -190.8,265.96 -285.78,399.24 -2.59,3.63 -3.33,8.58 -4.94,12.91 -2.48,-2.14 -4.96,-4.27 -7.44,-6.41 16.48,-35.11 32.72,-70.33 49.49,-105.3 55.41,-115.58 110.69,-231.22 167.09,-346.32 5.14,-10.48 16.63,-21.66 27.46,-24.94 114.44,-34.65 231.3,-55.74 350.67,-66.01 88.46,-7.61 175.53,-5.06 262.39,12 9.13,1.79 18.01,4.87 27,7.36 -191,-13.78 -370.12,35.86 -548.26,90.43 z"
           id="path6114"
           style="fill:#ff6600;fill-rule:evenodd" /><path
           d="m 5827.13,4252.21 c -21.53,-132.44 -43.29,-264.84 -64.56,-397.32 -18.91,-117.75 -37.03,-235.62 -56,-353.36 -14.46,-89.77 -29.56,-179.47 -44.9,-271.99 L 3491.78,4718.67 c -7.41,6.72 -14.64,19.4 -12.83,26.5 17.76,69.76 37.96,138.89 57.32,207.81 4.9,0.25 7.86,0.99 10.58,0.45 171.86,-34.12 343.61,-68.78 515.55,-102.45 329.03,-64.43 658.22,-128.03 987.23,-192.49 263.64,-51.66 527.05,-104.49 790.82,-155.49 23.18,-4.48 25.37,-14.07 22.18,-33.05 -12.19,-72.51 -23.7,-145.15 -35.5,-217.74 z"
           id="path6116"
           style="fill:#ff6600;fill-rule:evenodd" /><path
           d="m 4581.5,2438.32 c -51.59,74.74 -103.23,149.45 -154.09,223.08 284.02,48.7 508.95,165.56 630.93,236.08 18.8,8.58 30.36,7.04 45.52,-5.97 95.28,-81.78 191.04,-163.01 287.18,-243.8 190.04,-159.7 380.58,-318.82 570.63,-478.51 199.81,-167.88 399.34,-336.08 598.92,-504.23 -326.39,-232.07 -695.2,-407.31 -1092.21,-511.3 -91.91,133.75 -184.44,267.08 -276.66,400.62 -203.46,294.64 -406.81,589.36 -610.22,884.03 z"
           id="path6118"
           style="fill:#ff6600;fill-rule:evenodd" /><path
           d="m 3524.19,2467.48 c -21.49,79.87 -44.67,165.97 -66.98,250.27 46.56,-10.37 323.17,-115.2 718.88,-88.82 19.08,1.16 28.97,-5.68 37.86,-22.32 85.3,-159.66 166.56,-311.85 252.4,-471.22 124.04,-230.28 247.99,-460.62 371.99,-690.93 66.42,-123.36 132.88,-246.71 201.16,-373.46 -137.35,-17.23 -277.22,-26.16 -419.13,-26.16 -252.51,0 -498.61,28.17 -735.43,81.45 -6.84,28.63 -14.95,56.97 -22.6,85.41 -112.71,418.6 -225.51,837.17 -338.15,1255.78 z"
           id="path6120"
           style="fill:#ff6600;fill-rule:evenodd" /><path
           d="m 2545.86,1836.53 c 6.63,78.14 13.34,156.27 19.88,234.42 6.3,75.3 12.22,150.63 18.7,225.91 6.56,76.18 13.88,152.29 20.34,228.48 6.62,78.2 12.58,156.47 18.86,234.7 6.05,75.39 11.98,150.79 18.28,226.16 5.69,68.08 11.43,139.61 17.71,211.68 77.38,-75.63 317.01,-289.31 612.48,-411.98 13.75,-5.71 27.38,-8.82 30.84,-30.91 18.46,-117.67 36.52,-215.22 57.03,-332.58 28.68,-164.11 57.33,-328.23 85.9,-492.37 35.77,-205.54 71.52,-411.09 107.06,-616.67 5.59,-32.33 10.49,-64.82 15.86,-99.36 -375.71,124.54 -722.52,313.9 -1027.32,554.95 -0.14,0.6 -0.31,1.21 -0.32,1.8 -0.51,21.89 2.83,43.85 4.7,65.77 z"
           id="path6122"
           style="fill:#ff6600;fill-rule:evenodd" /><path
           d="m 2151.69,3602.03 c 28.95,58.26 62.61,126.45 92.44,186.35 62.88,-139.38 194.26,-347.57 318.13,-488.72 6.41,-7.31 10.14,-21.49 8.12,-30.98 -20.81,-97.89 -43.14,-189.66 -65.05,-287.32 -57.91,-258.1 -115.86,-516.2 -173.82,-774.29 -15.21,-67.73 -30.56,-135.42 -47.53,-210.59 -22.74,24.23 -40.47,42.85 -57.9,61.74 -72.83,78.96 -151.57,153.39 -216.96,238.1 -88.09,114.1 -168.83,233.86 -251.92,351.85 -14.06,22.66 -27.86,45.51 -41.4,68.52 0.01,6.6 2.26,13.25 6.04,20.84 143.57,288.03 286.64,576.29 429.85,864.5 z"
           id="path6124"
           style="fill:#ff6600;fill-rule:evenodd" /><path
           d="m 1463.39,3773.25 c 166.75,147.24 333.58,294.4 500.43,441.53 38,33.51 78.9,69.38 120.26,105.61 15.83,-124.87 58.2,-279.76 105.96,-401.87 9.16,-23.43 -0.04,-37.32 -12.31,-53.78 -168.78,-226.42 -339.26,-452.55 -507.93,-679.06 -37.99,-51.02 -76.32,-101.8 -115.94,-154.62 -4.47,8.41 -7.33,13.18 -9.63,18.2 -5.97,13.06 -11.84,26.15 -17.63,39.27 -78.19,180.23 -141.29,368.58 -187.77,563.37 1.54,6.68 5.02,13.54 9.12,17.41 37.65,35.53 76.62,69.66 115.44,103.94 z"
           id="path6126"
           style="fill:#ff6600;fill-rule:evenodd" /><path
           d="m 1937.2,4872.06 c 44.65,15.45 94.49,32.94 140.29,48.94 -26.82,-165.76 -14.78,-400.9 -11.87,-451.56 1.19,-20.64 -5.68,-32.28 -23.85,-43.49 -189.08,-116.57 -381.36,-235.03 -569.95,-352.4 -62.5,-38.89 -125.13,-77.62 -190.93,-118.42 -23.27,161.02 -35.39,325.64 -35.39,493.07 0,62.38 1.72,124.35 5.03,185.91 2.88,1.62 6.25,3.08 10.22,4.44 225.69,77.26 451.03,155.48 676.45,233.51 z"
           id="path6128"
           style="fill:#ff6600;fill-rule:evenodd" /><path
           d="m 2252.92,5507.54 c -11.18,-19.62 -22.95,-22.74 -43.15,-17.88 -190.58,45.82 -386.45,92.18 -577.15,137.54 -54.15,12.88 -108.33,25.91 -163.62,39.18 62.3,163.36 136.73,320.69 222.21,470.86 234.84,-125.41 470.34,-250.82 705.49,-376.44 -91.02,-140.7 -99.71,-175.9 -143.78,-253.26 z"
           id="path6130"
           style="fill:#ff6600;fill-rule:evenodd" /><path
           d="m 1747.15,5373.51 c 104.59,-0.89 209.2,-0.18 313.8,-0.18 h 133.63 c -2.68,-10.32 -65.65,-190.27 -85.44,-283.48 -1.26,-8.85 -15.9,-20.52 -26.07,-22.69 -231.85,-49.45 -461.9,-96.87 -693.98,-145.24 -37.34,-7.78 -74.93,-14.84 -113.97,-22.4 21.62,163.84 54.78,324.05 98.74,479.73 0.8,0 1.58,0.01 2.41,-0.01 123.61,-2.74 247.24,-4.68 370.88,-5.73 z"
           id="path6132"
           style="fill:#ff6600;fill-rule:evenodd" /><path
           d="m 3418.55,4663.88 c 103.52,-69.29 205.64,-140.68 308.48,-210.99 413.63,-282.77 827.32,-565.46 1241,-848.16 l 460.86,-316.27 c -23.94,-22 -44.91,-42.39 -67.08,-61.34 -130.83,-111.81 -271.18,-209.64 -423.41,-290.46 -237.63,-126.15 -489.03,-207.54 -758.01,-225.32 -138.62,-9.16 -277.77,-1.8 -415.39,21.8 -206.92,35.48 -403.26,101.69 -588.54,200.8 -273.71,146.4 -500.17,346.37 -679.61,599.35 -206.79,291.55 -321.53,617.01 -350.94,972.33 -11.79,142.45 -5.16,285.15 16.97,426.49 28.33,181.01 79.53,355.51 156.7,521.99 85.72,184.92 198.21,351.95 337.41,500.75 33.83,36.16 70.47,69.68 106.78,105.35 53.62,-74.55 126.48,-115.2 207.12,-143.87 144.52,-51.37 295.63,-60.53 446.77,-63.91 84.12,-1.88 168.65,3.96 252.65,10.57 95.3,7.5 190.27,19.34 285.29,30.13 45.04,5.11 89.86,12.17 139.08,18.94 -139.37,-292.64 -276.57,-580.73 -413.73,-868.74 -71.11,14.03 -138.38,27.3 -207.23,40.88 -2.58,-6.98 -4.83,-11.32 -5.79,-15.93 -24.15,-115.66 -46.77,-231.67 -73.16,-346.81 -6.63,-28.9 0.79,-42.19 23.78,-57.58 z M 3226.93,3228.81 c -299.18,248.67 -538.63,540.87 -662.48,916.38 -34.52,104.65 -54.25,212.07 -63.92,321.99 -26.51,301.27 42,583.3 173.29,851.49 48.3,98.67 108.33,191.6 163.01,287.15 3.67,6.41 7.27,12.85 13.22,23.38 -40.76,20.76 -79.46,41.43 -119.09,60.11 -13.53,6.37 -27.25,8.93 -38.28,-10.38 -114.74,-201.01 -209.08,-410.51 -266.32,-635.47 -39.8,-156.44 -62.32,-315.61 -56.21,-477.02 10.22,-269.88 85.88,-520.78 228.57,-751.09 124.62,-201.15 283.53,-370.9 467.64,-518.27 156.97,-125.65 325.72,-232.2 508.2,-316.8 8.36,-3.87 16.93,-7.28 25.4,-10.9 -132.1,76.58 -256.43,162.52 -373.03,259.43 z"
           id="path6110"
           style="fill:#ff6600;fill-opacity:1;fill-rule:evenodd"
           transform="translate(1.1354324e-4)" /></g><g
         id="g26172"
         inkscape:label="torch"
         transform="matrix(1.376452,0.41396005,-0.41396005,1.376452,90.503466,-27.383635)"><path
           d="m -71.02105,133.27748 h -6.369214 a 0.40715349,0.21179545 0 0 0 0,0.42359 h 0.119678 l 0.574676,0.37367 h -0.45492 a 0.48477324,0.25217214 0 0 0 -0.484884,0.25223 v 0.16186 a 0.48491568,0.25224624 0 0 0 0.484884,0.25224 l 2.163986,13.39323 a 0.56511773,0.2939662 0 0 1 -0.563032,0.31865 v 0.12597 h -0.188208 c 0,0 0.228476,0.65027 0.954391,0.6783 0,0 -0.483897,0.21675 0.578041,0.30768 1.061929,-0.0909 0.578031,-0.30768 0.578031,-0.30768 0.725916,-0.028 0.954391,-0.6783 0.954391,-0.6783 h -0.188207 v -0.12597 a 0.56510768,0.29396097 0 0 1 -0.56302,-0.31865 l 2.163984,-13.39324 a 0.484914,0.25224537 0 0 0 0.484874,-0.25223 v -0.16186 a 0.48472633,0.25214774 0 0 0 -0.484874,-0.25223 h -0.45493 l 0.574677,-0.37367 h 0.119676 a 0.40715349,0.21179545 0 0 0 0,-0.42359 z"
           fill="#6d4e43"
           id="path17086"
           style="stroke-width:0.12086" /><path
           d="m -71.09559,121.88374 h -6.220122 a 1.0205289,1.6113284 0 0 0 -1.002136,1.91612 l 0.89167,7.30896 -0.248036,0.4533 a 0.45314554,0.7154783 0 0 0 -0.05319,0.81521 l 0.08573,0.24354 h 6.872047 l 0.08572,-0.24354 a 0.45311705,0.71543332 0 0 0 -0.05318,-0.81521 l -0.248037,-0.4533 0.891682,-7.30895 a 1.0205406,1.6113469 0 0 0 -1.00214,-1.91613 z"
           fill="#593e35"
           id="path17088"
           style="stroke-width:0.210563" /><path
           d="m -72.210175,116.49259 a 21.079142,21.079142 0 0 0 -1.011526,2.23981 c 0.433514,-2.31206 -0.216755,-4.62412 -0.578014,-6.86394 a 4.4462408,4.4462408 0 0 1 -0.144505,1.37279 c -0.505764,1.30053 -1.228286,2.52882 -1.300536,3.97386 a 14.467962,14.467962 0 0 0 -0.289009,-1.73405 c -0.28901,1.15603 -0.433515,2.31206 -0.650269,3.4681 -0.216758,-0.65027 -0.505762,-1.22829 -0.433512,-1.95081 a 5.0059431,5.0059431 0 0 0 1.26003,4.15808 6.8507133,6.8507133 0 0 0 2.152838,0.14673 c 0.838941,-1.47649 1.341223,-3.12652 0.994503,-4.81057 z"
           fill="#f5d25e"
           id="path17094"
           style="stroke-width:0.264583" /><path
           d="m -70.259371,119.96069 c -0.361257,-0.57802 0.21676,-1.37279 0.21676,-2.09531 -0.433514,0.21675 -0.722521,0.65027 -1.156031,0.86702 -0.07225,-1.6618 0.144505,-3.25134 0.289005,-4.84089 a 10.564728,10.564728 0 0 1 -1.156034,1.37279 c -0.144504,-1.66179 -1.22828,-3.03458 -1.15603,-4.76863 -0.505765,0.86702 -1.011529,1.87854 -1.878542,2.23981 -0.348668,0.11622 -0.743773,-0.14161 -0.997963,-0.47246 1.073195,1.89455 -0.520621,4.05571 -2.181127,5.02434 -0.36126,0.21676 -0.433515,-0.43351 -0.505765,-0.72252 a 6.1837014,6.1837014 0 0 0 0.652804,3.17521 6.2319508,6.2319508 0 0 0 2.774778,1.41638 5.0059431,5.0059431 0 0 1 -1.260036,-4.15807 c -0.07225,0.72251 0.216755,1.30053 0.433512,1.9508 0.216755,-1.15604 0.36126,-2.31207 0.650269,-3.4681 a 14.467962,14.467962 0 0 1 0.28901,1.73405 c 0.07225,-1.44504 0.794771,-2.67333 1.300536,-3.97386 a 4.4462408,4.4462408 0 0 0 0.144504,-1.37279 c 0.36126,2.23981 1.011529,4.55188 0.578014,6.86394 a 21.079142,21.079142 0 0 1 1.011526,-2.23981 c 0.346721,1.68405 -0.155575,3.33408 -0.994497,4.81057 a 6.544593,6.544593 0 0 0 1.680816,-0.37702 5.9875208,5.9875208 0 0 0 1.438029,-0.75962 1.0018157,1.0018157 0 0 1 -0.173538,-0.20583 z"
           fill="#fe9a10"
           id="path17096"
           style="stroke-width:0.264583" /><path
           d="m -76.098214,112.26302 c -0.04753,-0.0839 -0.09985,-0.16733 -0.158073,-0.25006 a 1.5595547,1.5595547 0 0 0 0.158073,0.25006 z"
           fill="none"
           stroke="#603813"
           stroke-miterlimit="10"
           id="path17098"
           style="stroke-width:0.264583" /><path
           d="m -78.785106,116.56485 c 0.07225,0.289 0.144505,0.93927 0.505765,0.72251 1.660506,-0.96862 3.254322,-3.12978 2.181127,-5.02433 a 1.5595547,1.5595547 0 0 1 -0.158073,-0.25006 c 0.05822,0.0827 0.110546,0.16616 0.158073,0.25006 0.25419,0.33085 0.649287,0.58868 0.997963,0.47246 0.867021,-0.36126 1.372785,-1.37279 1.878542,-2.23982 -0.07225,1.73405 1.011526,3.10684 1.156031,4.76864 a 10.564728,10.564728 0 0 0 1.156033,-1.37279 c -0.1445,1.58954 -0.36126,3.17909 -0.289004,4.84089 0.433509,-0.21676 0.722516,-0.65027 1.15603,-0.86703 0,0.72252 -0.578016,1.51729 -0.21676,2.09531 a 1.0018157,1.0018157 0 0 0 0.173543,0.20585 4.8460501,4.8460501 0 0 0 0.740513,-0.65985 4.6563094,4.6563094 0 0 0 1.158264,-3.42327 c -0.0473,-0.67219 -0.2267,-1.82086 -0.688152,-2.34121 -0.06497,0.34032 0.07504,0.76279 0.09667,1.11551 a 3.3578482,3.3578482 0 0 1 -0.253854,1.68676 1.0355448,1.0355448 0 0 1 -0.401916,0.47364 0.50651304,0.50651304 0 0 1 -0.586777,-0.0473 0.6176248,0.6176248 0 0 1 -0.149418,-0.3003 c -0.285602,-1.17908 0.943642,-2.24236 0.928042,-3.45544 -0.01037,-0.80745 -0.56311,-1.48775 -0.997521,-2.16848 -0.434412,-0.68072 -0.766429,-1.58154 -0.339926,-2.26721 -0.496904,0.31776 -0.69369,0.96056 -0.676085,1.55012 a 11.732837,11.732837 0 0 0 0.314267,1.73865 c 0.08056,0.44025 0.05165,1.00343 -0.353991,1.19251 a 0.73563162,0.73563162 0 0 1 -0.833388,-0.23967 1.6543443,1.6543443 0 0 1 -0.32005,-0.86199 4.7217541,4.7217541 0 0 1 0.427143,-2.66788 c 0.409977,-0.84665 1.08997,-1.62456 1.099426,-2.56521 0.0099,-0.98516 -0.718992,-1.8026 -1.402609,-2.51204 a 1.456436,1.456436 0 0 1 0.251372,1.56247 c -0.214251,0.4657 -0.897005,0.77542 -1.232642,0.38796 a 0.87894582,0.87894582 0 0 1 -0.172347,-0.54479 c -0.05276,-1.18879 0.75012,-2.33992 0.503938,-3.50413 a 2.7077458,2.7077458 0 0 0 -1.113925,-1.56951 5.8428783,5.8428783 0 0 0 -1.075796,-0.59561 2.2486937,2.2486937 0 0 1 1.021247,2.12702 c -0.143639,1.03629 -1.011187,1.85012 -1.209066,2.87743 -0.187018,0.97099 0.255934,1.94998 0.780571,2.78816 0.402846,0.64359 0.880959,1.32234 0.820436,2.07919 a 2.0221892,2.0221892 0 0 1 -1.199706,1.57746 c -0.406733,0.19299 -0.993042,0.22728 -1.212075,-0.16605 a 0.98266249,0.98266249 0 0 1 -0.07497,-0.56188 c 0.06756,-0.81583 0.329142,-1.65137 0.09098,-2.43456 -0.155985,-0.51299 -0.510016,-0.9382 -0.768101,-1.40817 -0.258085,-0.46997 -0.416772,-1.06129 -0.160787,-1.53241 -0.363781,0.43751 -0.378122,1.07252 -0.251997,1.62735 0.126124,0.55484 0.372215,1.07889 0.472638,1.63896 0.100423,0.56006 0.02323,1.20219 -0.397404,1.58536 -0.42064,0.38317 -1.235676,0.30504 -1.423789,-0.23196 -0.126206,-0.36027 0.05687,-0.74905 0.07851,-1.13017 a 1.8223997,1.8223997 0 0 0 -0.678628,1.83203 2.8861173,2.8861173 0 0 0 1.123215,1.683 c 0.458242,0.35343 1.023673,0.64905 1.225428,1.19146 a 1.3402945,1.3402945 0 0 1 -0.517107,1.49683 1.9099794,1.9099794 0 0 1 -1.630654,0.21594 0.7731998,0.7731998 0 0 1 -0.397899,-0.22872 0.85936666,0.85936666 0 0 1 -0.145899,-0.41345 6.7689782,6.7689782 0 0 1 -0.06745,-1.48159 c -0.892759,2.18024 -0.201583,4.87211 1.546631,6.45142 l 0.0081,0.007 a 6.1837014,6.1837014 0 0 1 -0.652778,-3.17521 z"
           fill="#fc8900"
           id="path17100"
           style="stroke-width:0.264583" /></g></g></g></svg>
